PathFileType	4	(X/Y/Z)	TVC_12_BWA1_walk_RCNL2025.trc
DataRate	CameraRate	NumFrames	NumMarkers	Units	OrigDataRate	OrigDataStartFrame	OrigNumFrames
100	100	4	27	mm	100	59	468
Frame#	Time	R_Shoulder			L_Shoulder			C7			J_Notch			R_Elbow			L_Elbow			R_Wrist			L_Wrist			R_Asis			L_Asis			R_Psis			L_Psis			Sacral			Thoracic			Sternum			R_Thigh_Lateral			R_Knee_Lateral			R_Shank_Lateral			R_Ankle_Lateral			R_Heel			R_Toe			L_Thigh_Lateral			L_Knee_Lateral			L_Shank_Lateral			L_Ankle_Lateral			L_Heel			L_Toe		
		X1	Y1	Z1	X2	Y2	Z2	X3	Y3	Z3	X4	Y4	Z4	X5	Y5	Z5	X6	Y6	Z6	X7	Y7	Z7	X8	Y8	Z8	X9	Y9	Z9	X10	Y10	Z10	X11	Y11	Z11	X12	Y12	Z12	X13	Y13	Z13	X14	Y14	Z14	X15	Y15	Z15	X16	Y16	Z16	X17	Y17	Z17	X18	Y18	Z18	X19	Y19	Z19	X20	Y20	Z20	X21	Y21	Z21	X22	Y22	Z22	X23	Y23	Z23	X24	Y24	Z24	X25	Y25	Z25	X26	Y26	Z26	X27	Y27	Z27
59	0.58000000	-1307.231445	1346.362671	430.933228	-1300.034668	1340.204834	14.508735	-1407.913574	1420.200684	222.379593	-1261.850952	1296.058350	228.240479	-1440.068848	1038.756958	509.807739	-1462.349976	1031.485840	-37.965034	-1401.119629	791.293610	488.400421	-1422.990601	799.107666	-0.471970	-1370.549072	914.327332	406.456573	-1364.967529	914.051086	55.016209	-1542.113281	968.094604	290.978699	-1544.238281	961.471497	183.503387	-1543.175781	964.783051	237.241043	-1512.946655	1174.086304	223.815933	-1193.210449	1097.262695	223.354095	-1436.752075	608.405518	427.373138	-1449.345825	475.165253	373.767273	-1516.133545	266.548431	419.633209	-1559.751343	58.850056	362.943512	-1600.410889	55.804234	304.281311	-1424.940063	43.773201	351.369354	-1358.909058	586.449707	-0.711597	-1280.646973	487.150513	62.177586	-1271.719727	297.616394	-0.646225	-1223.798096	81.098488	49.459743	-1263.113281	50.083115	98.369301	-1080.322266	87.794533	64.884735
60	0.59000000	-1302.085205	1345.902832	427.796143	-1294.739502	1338.694946	11.317763	-1402.899414	1418.915161	218.965088	-1256.435303	1295.252563	225.193604	-1434.721069	1038.410034	507.481628	-1456.875366	1029.785400	-40.299156	-1396.568970	790.781494	486.251785	-1416.680969	798.147858	-2.320415	-1363.482666	914.054749	404.671906	-1357.838989	911.921509	53.303883	-1535.324707	966.406311	288.697571	-1537.322876	959.562866	181.246979	-1536.323792	962.984589	234.972275	-1507.023315	1172.453247	220.781998	-1186.928589	1096.801880	221.022049	-1431.125854	607.785828	426.174744	-1445.877197	474.565033	372.640900	-1514.382446	266.638000	419.024994	-1559.609741	59.058640	362.832214	-1600.289062	56.071014	304.137085	-1424.873901	43.737049	351.362000	-1354.211182	584.879822	-1.086786	-1276.250732	485.096741	60.067295	-1269.374023	294.797699	-1.645769	-1220.638550	78.871437	48.243187	-1259.251587	48.568253	98.139359	-1076.977417	84.068031	60.892239
61	0.60000000	-1297.052246	1345.397705	424.621185	-1289.503662	1337.110107	8.023768	-1397.903687	1417.627808	215.445389	-1251.026245	1294.462646	222.057541	-1429.398926	1037.947632	505.038391	-1451.445435	1027.956787	-42.666798	-1391.952576	790.175751	483.972397	-1411.057983	796.847168	-3.888193	-1356.236694	913.797058	402.706909	-1350.607788	909.848572	51.631557	-1528.466309	964.626587	286.350067	-1530.380981	957.718750	178.876953	-1529.423645	961.172668	232.613510	-1501.101074	1170.875732	217.625229	-1180.547729	1096.392456	218.573608	-1424.980713	607.097778	424.832672	-1442.268921	473.961823	371.395508	-1512.533081	266.786652	418.360931	-1559.431885	59.347507	362.714417	-1600.144531	56.433582	303.999146	-1424.792358	43.703957	351.326416	-1349.515381	583.533813	-1.419649	-1271.850464	483.001251	57.844608	-1267.186523	292.090363	-2.490714	-1218.197021	76.731148	47.225056	-1256.294067	47.505329	98.137863	-1074.278076	79.440155	57.317757
62	0.61000000	-1292.080322	1344.890869	421.426483	-1284.314819	1335.476685	4.648439	-1392.878296	1416.408081	211.848389	-1245.604248	1293.725952	218.842102	-1424.091919	1037.417603	502.471039	-1446.059082	1026.041382	-45.054020	-1387.270935	789.523041	481.566238	-1406.131104	795.247223	-5.184631	-1348.885986	913.559143	400.545868	-1343.306763	907.977783	50.015831	-1521.575562	962.821838	283.981140	-1523.476196	956.055969	176.432358	-1522.525879	959.438904	230.206749	-1495.189331	1169.445312	214.406723	-1174.083130	1096.069336	215.976059	-1418.426880	606.360535	423.315399	-1438.551636	473.386688	370.024811	-1510.603394	267.033783	417.641052	-1559.212036	59.748104	362.582764	-1599.968872	56.931854	303.858185	-1424.694092	43.678841	351.259125	-1344.791504	582.485107	-1.859730	-1267.354858	481.054230	55.533630	-1264.771729	289.727783	-3.286352	-1216.071533	74.848175	46.338108	-1253.905029	46.967121	98.189789	-1071.843750	74.244484	54.411560
